# xmcd
#
# Track frame offsets: 
#        150
#        21297
#        40581
#        56838
#        72033
#        91053
#
# Disc length: 1556 seconds
#
# Revision: 0
# Processed by: cddbd v1.5.2PL0 Copyright (c) Steve Scherf et al.
# Submitted via: ExactAudioCopy v1.3
#
DISCID=43061206
DTITLE=Black Stone Cherry - Black To Blues Vol. 2
DYEAR=2019
DGENRE=Blues Rock
TTITLE0=Big Legged Woman
TTITLE1=Me and The Devil Blues
TTITLE2=All Your Love (I Miss Loving)
TTITLE3=Down In The Bottom
TTITLE4=Early One Morning
TTITLE5=Death Letter Blues
EXTD=
EXTT0=
EXTT1=
EXTT2=
EXTT3=
EXTT4=
EXTT5=
PLAYORDER=
